# xmcd
#
# Track frame offsets:
#	187
#	16005
#	29867
#	47225
#	59907
#	74255
#	88902
#	102482
#	116842
#	129290
#
# Disc length: 2027 seconds
#
# Revision: 2
# Processed by: cddbd v1.5.2PL0 Copyright (c) Steve Scherf et al.
# Submitted via: audiograbber 1.83.01
#
DISCID=9507e90a
DTITLE=The Oak Ridge Boys - The Oak Ridge Boys Have Arrived
DYEAR=1900
DGENRE=
TTITLE0=Sail Away
TTITLE1=There Must Be Something About Me That She Loves
TTITLE2=Sometimes the Rain Won't Let Me Sleep
TTITLE3=I Gotta Get Over This
TTITLE4=My Radio Sure Sounds Good To Me
TTITLE5=Dream On
TTITLE6=Leaving Louisana in the Broad Daylight
TTITLE7=Every Now and Then
TTITLE8=Dig a Little Deeper in the Well
TTITLE9=Dancing the Night Away
EXTD=
EXTT0=
EXTT1=
EXTT2=
EXTT3=
EXTT4=
EXTT5=
EXTT6=
EXTT7=
EXTT8=
EXTT9=
PLAYORDER=
